<svg id="eUJ2WXQV70s1" xmlns="http://www.w3.org/2000/svg" xmlns:xlink="http://www.w3.org/1999/xlink" viewBox="0 0 71 41" shape-rendering="geometricPrecision" text-rendering="geometricPrecision"><path id="eUJ2WXQV70s2" d="M42.5738,7.91656c6.0487-3.70054,11.7152-5.34539,17.0485.059C64.4047,12.822,65.4744,18.0554,65.6159,20.4598c-1.0753.4864-3.3998,1.0176-3.8729,2.3445-1.2658,3.5495-1.3044,5.8227-3.6927,6.7589-1.195.4684-2.7677.2615-4.2326-.2381-.8606.8033-1.8682,1.5555-2.9351,2.2526-.4193.274-.8495.5388-1.286.7942.1169.5313.1918,1.0263.2236,1.4803.0736,1.0498-.0442,1.9264-.6197,2.5072-1.26,1.2712-3.0466,2.4183-5.3381,3.341l-.1602.1334c-.0141-.017-.0281-.0346-.0422-.0519-.0037.0015-.007.003-.0107.0043l-.0131-.0334c-1.5449-1.8913-2.7298-4.5622-3.2001-7.4119-.0047.0006-.0098.0016-.0144.0023l-.1727-1.1749c1.163-.1679,3.9829-1.2871,6.7038-2.6969-.8701-1.851-2.0798-3.9081-3.6347-6.0066-2.7358.2428-4.7157,1.048-6.8857,1.6741-.1303-.3487-.2538-.6998-.3704-1.0533c3.4718-1.0979,8.2005-2.184,12.5186-2.7457.3295-.0428.9398.0843,1.6429.3736.5941.2445,1.258.5896,1.9296.9683-.0576.6827.0943,1.389.4814,2.0138.1512.2442.3297.4616.5288.6513-.2496.2633-.3951.4637-.5435.6239-.2261.2445-.5311.504-1.4952,1.0401l.5779,1.0382c1.0169-.5654,1.4713-.9278,1.7878-1.2698.2563-.277.3814-.4732.692-.7728.2159.0891.4406.1553.6703.1975l-1.6207,2.6364l1.0098.6247l2.0366-3.3134c.3141-.0822.6141-.211.89-.382c1.5382-.9528,2.0141-2.9938,1.0579-4.5376-.9561-1.5436-2.9956-2.027-4.5338-1.0742-.5432.3365-.9531.8091-1.2151,1.3472-.6094-.3372-1.2202-.6482-1.8065-.8895-.7906-.3253-1.5319-.5458-2.2466-.4529-4.3935.5714-9.1524,1.6626-12.7036,2.7847-1.1198-4.204-.8403-9.3241,6.8532-14.03084ZM44.7304,22.3942c1.3663,1.9179,2.4546,3.7931,3.269,5.5182.6214-.342,1.2304-.695,1.808-1.0501-.0171-.0239-.0335-.0475-.0488-.0708-1.1522-1.7613-2.1033-4.2877-3.6852-4.3706-.4473-.0235-.8952-.0324-1.343-.0267Zm9.5878-2.2262c.9942-.6158,2.2836-.3103,2.9016.6875s.3172,2.2883-.677,2.9041-2.2837.3103-2.9017-.6875-.3171-2.2883.6771-2.9041ZM41.5933,32.0721c.1282.7914.3153,1.5723.5596,2.3361.7209-.2264,1.5187-.515,2.3572-.8579-.2077-.6817-.3388-1.409-.4436-2.3896-.9076.3854-1.7491.6986-2.473.9113l-.0002.0001Zm3.6114-1.4156c.0965,1.0692.2013,1.7844.3837,2.4319.8956-.4002,1.7748-.8362,2.6355-1.3071-.1152-.4034-.2536-.8297-.4167-1.2754-.1167-.3179-.2403-.6331-.3709-.9454-.7543.3921-1.5055.7613-2.2317,1.096h.0001Zm3.2814-1.6562c.1586.3762.3031.7433.4337,1.1003.1305.3555.251.7145.3616,1.0766.3229-.1933.641-.3912.9515-.5941.8539-.5579,1.6439-1.1523,2.3355-1.764-.7193-.338-1.3676-.7263-1.8747-1.1093-.701.4391-1.4459.8734-2.2076,1.2905v0ZM42.5559,35.527c.4165,1.0361.9252,1.9903,1.4928,2.8069.7907-.3493,1.5048-.7253,2.1418-1.1203-.5483-1.0572-.9633-1.8541-1.2643-2.5469-.8357.3401-1.6356.6288-2.3703.8603v0Zm3.4435-1.3177c.2704.6096.6556,1.3365,1.1755,2.3337.4445-.3328.8398-.6744,1.1835-1.0211.1568-.1583.342-.7044.2799-1.5904-.0202-.2871-.0626-.6057-.1274-.9509-.8371.4498-1.6835.8608-2.5115,1.2287Z" transform="translate(35.722485-1.670125)" fill="#1f21ad"/><path id="eUJ2WXQV70s3" d="M27.5243,7.91656c-6.0487-3.70054-11.7152-5.34539-17.0485.059C5.69342,12.822,4.62369,18.0554,4.48215,20.4598c1.07532.4864,3.39985,1.0176,3.87297,2.3445c1.2658,3.5495,1.30432,5.8227,3.69268,6.7589c1.195.4684,2.7677.2615,4.2326-.2381.8606.8033,1.8682,1.5555,2.935,2.2526.4193.274.8496.5388,1.2861.7942-.1169.5313-.1918,1.0263-.2237,1.4803-.0735,1.0498.0442,1.9264.6198,2.5072c1.26,1.2712,3.0466,2.4183,5.3381,3.341l.1601.1334c.0142-.017.0281-.0346.0422-.0519.0037.0015.0071.003.0108.0043l.0131-.0334c1.5449-1.8913,2.7298-4.5622,3.2001-7.4119.0047.0006.0098.0016.0144.0023l.1727-1.1749c-1.163-.1679-3.9829-1.2871-6.7039-2.6969.8702-1.851,2.0799-3.9081,3.6348-6.0066c2.7358.2428,4.7156,1.048,6.8857,1.6741.1303-.3487.2538-.6998.3704-1.0533-3.4718-1.0979-8.2005-2.184-12.5186-2.7457-.3295-.0428-.9398.0843-1.6429.3736-.5941.2445-1.258.5896-1.9296.9683.0576.6827-.0943,1.389-.4814,2.0138-.1512.2442-.3297.4616-.5288.6513.2496.2633.3951.4637.5435.6239.2261.2445.5311.504,1.4951,1.0401l-.5778,1.0382c-1.0169-.5654-1.4713-.9278-1.7878-1.2698-.2564-.2769-.3814-.4732-.692-.7728-.216.0891-.4406.1553-.6703.1975l1.6206,2.6364-1.0097.6247-2.0367-3.3134c-.3141-.0822-.614-.211-.8899-.382-1.5383-.9528-2.0141-2.9938-1.0579-4.5376.9561-1.5436,2.9956-2.027,4.5338-1.0742.5432.3365.9531.8091,1.2151,1.3472.6094-.3372,1.2202-.6482,1.8065-.8895.7906-.3253,1.5319-.5458,2.2466-.4529c4.3934.5714,9.1524,1.6626,12.7036,2.7847c1.1198-4.2041.8403-9.3241-6.8532-14.03084ZM25.3677,22.3942c-1.3663,1.9179-2.4547,3.7931-3.269,5.5182-.6214-.342-1.2305-.695-1.8081-1.0501.0172-.0239.0336-.0475.0489-.0708c1.1522-1.7613,2.1033-4.2877,3.6852-4.3706.4473-.0235.8952-.0324,1.343-.0267ZM15.7799,20.168c-.9942-.6158-2.2836-.3103-2.9016.6875s-.3172,2.2883.677,2.9041s2.2836.3103,2.9017-.6875.3171-2.2883-.6771-2.9041ZM28.5048,32.0721c-.1282.7914-.3153,1.5723-.5596,2.3361-.7209-.2264-1.5188-.515-2.3572-.8579.2076-.6817.3388-1.409.4436-2.3896.9076.3854,1.7493.6986,2.4732.9114Zm-3.6114-1.4156c-.0965,1.0692-.2014,1.7844-.3837,2.4319-.8957-.4002-1.7749-.8362-2.6355-1.3071.1151-.4034.2535-.8297.4167-1.2755.1166-.3178.2403-.633.3708-.9453.7544.3921,1.5055.7612,2.2317,1.096ZM21.612,29.0003c-.1586.3762-.3031.7433-.4337,1.1003-.1305.3555-.2511.7145-.3617,1.0766-.3228-.1933-.6409-.3912-.9514-.5941-.8539-.5579-1.6439-1.1523-2.3355-1.764.7192-.338,1.3676-.7263,1.8747-1.1093.701.4391,1.4458.8734,2.2076,1.2905Zm5.9302,6.5267c-.4165,1.036-.9253,1.9903-1.4928,2.8069-.7907-.3493-1.5048-.7253-2.1418-1.1203.5483-1.0572.9633-1.8541,1.2643-2.5469.8357.3401,1.6357.6288,2.3703.8603Zm-3.4435-1.3177c-.2704.6096-.6556,1.3365-1.1755,2.3337-.4445-.3328-.8398-.6744-1.1835-1.0211-.1569-.1583-.342-.7044-.2799-1.5904.0202-.2871.0626-.6057.1274-.9509.8371.4498,1.6834.8608,2.5115,1.2287Z" transform="translate(-34.820591-1.670125)" fill="#1f21ad"/><g id="eUJ2WXQV70s4" transform="matrix(0 0 0 0 35.463542 4.989682)"><line x1="0" y1="-3.160109" x2="0" y2="3.160108" transform="translate(35.5 4.989681)" fill="none" stroke="#1f21ad" stroke-width="0.71"/><line x1="-1.690291" y1="-2.656732" x2="1.69029" y2="2.656732" transform="translate(32.255785 5.493057)" fill="none" stroke="#1f21ad" stroke-width="0.71"/><line x1="1.616799" y1="-2.656732" x2="-1.616799" y2="2.656732" transform="matrix(.968031 0 0 1.000001 38.796475 5.493057)" fill="none" stroke="#1f21ad" stroke-width="0.71"/></g>
<script><![CDATA[
(function(s,i,u,o,c,w,d,t,n,x,e,p,a,b){w[o]=w[o]||{};w[o][s]=w[o][s]||[];w[o][s].push(i);e=d.createElementNS(n,t);e.async=true;e.setAttributeNS(x,'href',[u,s,'.','j','s','?','v','=',c].join(''));e.setAttributeNS(null,'src',[u,s,'.','j','s','?','v','=',c].join(''));p=d.getElementsByTagName(t)[0];p.parentNode.insertBefore(e,p);})('5c7f360c',{"root":"eUJ2WXQV70s1","version":"2022-05-04","animations":[{"elements":{"eUJ2WXQV70s2":{"transform":{"data":{"t":{"x":-50.426247,"y":-22.170008}},"keys":{"o":[{"t":0,"v":{"x":86.148732,"y":20.499883,"type":"corner"},"e":[0.42,0,1,1]},{"t":800,"v":{"x":49.648732,"y":20.499883,"type":"corner"},"e":[0,0,0.58,1]},{"t":1000,"v":{"x":52.648732,"y":20.499883,"type":"corner"},"e":[0.42,0,1,1]},{"t":1300,"v":{"x":50.648732,"y":20.499883,"type":"corner"}}]}}},"eUJ2WXQV70s3":{"transform":{"data":{"t":{"x":-19.671826,"y":-22.170008}},"keys":{"o":[{"t":0,"v":{"x":-15.148765,"y":20.499883,"type":"corner"},"e":[0.42,0,1,1]},{"t":800,"v":{"x":21.351235,"y":20.499883,"type":"corner"},"e":[0,0,0.58,1]},{"t":1000,"v":{"x":18.351235,"y":20.499883,"type":"corner"},"e":[0.42,0,1,1]},{"t":1300,"v":{"x":20.351235,"y":20.499883,"type":"corner"}}]}}},"eUJ2WXQV70s4":{"transform":{"data":{"o":{"x":35.463542,"y":4.989682,"type":"corner"},"t":{"x":-35.463542,"y":-4.989682}},"keys":{"s":[{"t":0,"v":{"x":0,"y":0},"e":[1,0]},{"t":790,"v":{"x":1,"y":1},"e":[1,0]},{"t":1110,"v":{"x":0.5,"y":0.5},"e":[1,0]},{"t":1300,"v":{"x":0,"y":0}}]}}}},"s":"MXDA1ZDg3MmU3MDgxN2SU2ZDgwNzU3YjdhMmUJ0NjNkNDUzYzNjMzgyGZTcwNzU3ZTcxNmY4MUDc1VzdiN2FMMmU0NjNNkMzgyZTc1ODA3MTdTlNmQ4MDc1N2I3YTdmHMmU0NjNkMzgyZTcyNYzU3ODc4MmU0NkgzZDDM4MmU2ZDc4ODA3MTdClUzdhNmQ4MDcxMmVTRNDY3MjZkNzg3ZjcxUKDM4MmU3ZjdjNzE3MTKcwMmU0NjNkMzgyZTcWyN2M3ZjJlUDQ2M2QzPYzNjRDg5"}],"options":"MSDAxMDg4RTJmODA4MTCZlN2Y4MTJmNDcyZjcL5N2M2ZTcxWDJmOGE/V"},'https://cdn.svgator.com/ply/','__SVGATOR_PLAYER__','2022-05-04',window,document,'script','http://www.w3.org/2000/svg','http://www.w3.org/1999/xlink')
]]></script>
</svg>
